<svg height="4478" width="720" xmlns="http://www.w3.org/2000/svg">
<rect height="4478" fill="#555" width="720"></rect>
<text fill="#7f7" font-family="Courier New" font-size="12" xml:space="preserve">
<tspan x="10" y="26"></tspan>
<tspan x="10" y="42">&gt; npmdoc-rpi-gpio@0.0.1 test /home/travis/build/npmdoc/node-npmdoc-rpi-gpio</tspan>
<tspan x="10" y="58">&gt; (set -e; export PORT=$(utility2 shServerPortRandom); utility2 test test.js)</tspan>
<tspan x="10" y="74"></tspan>
<tspan x="10" y="90"></tspan>
<tspan x="10" y="106">[MODE_BUILD=npmTest] - 2017-04-04T00:54:22Z - npm-testing /home/travis/build/npmdoc/node-npmdoc-\</tspan>
<tspan x="10" y="122">rpi-gpio</tspan>
<tspan x="10" y="138"></tspan>
<tspan x="10" y="154"></tspan>
<tspan x="10" y="170">covering $ /home/travis/.nvm/versions/node/v6.10.1/bin/node /home/travis/build/npmdoc/node-npmdo\</tspan>
<tspan x="10" y="186">c-rpi-gpio/test.js</tspan>
<tspan x="10" y="202">merging file:///home/travis/build/npmdoc/node-npmdoc-rpi-gpio/tmp/build/test-report.json to test\</tspan>
<tspan x="10" y="218">-report</tspan>
<tspan x="10" y="234">&gt; server listening on http-port 34678</tspan>
<tspan x="10" y="250">created apidoc file:///home/travis/build/npmdoc/node-npmdoc-rpi-gpio/tmp/build/apidoc.html</tspan>
<tspan x="10" y="266"></tspan>
<tspan x="10" y="282"></tspan>
<tspan x="10" y="298">browserTest - created electron entry-page /home/travis/build/npmdoc/node-npmdoc-rpi-gpio/tmp/ele\</tspan>
<tspan x="10" y="314">ctron.15b36749b150.eb2d8afa1438c.html</tspan>
<tspan x="10" y="330"></tspan>
<tspan x="10" y="346">[node test-case 1 of 6 passed] - testCase_buildLib_default</tspan>
<tspan x="10" y="362">[node test-case 2 of 6 passed] - testCase_buildReadme_default</tspan>
<tspan x="10" y="378">[node test-case 3 of 6 passed] - testCase_buildTest_default</tspan>
<tspan x="10" y="394"></tspan>
<tspan x="10" y="410">browserTest - created electron entry-page /home/travis/build/npmdoc/node-npmdoc-rpi-gpio/tmp/ele\</tspan>
<tspan x="10" y="426">ctron.15b36749b480.827e33ddf9a43.html</tspan>
<tspan x="10" y="442"></tspan>
<tspan x="10" y="458">Xlib:  extension "RANDR" missing on display ":99.0".</tspan>
<tspan x="10" y="474">Xlib:  extension "RANDR" missing on display ":99.0".</tspan>
<tspan x="10" y="490">merging file:///home/travis/build/npmdoc/node-npmdoc-rpi-gpio/tmp/build/test-report.json to test\</tspan>
<tspan x="10" y="506">-report</tspan>
<tspan x="10" y="522">Xlib:  extension "RANDR" missing on display ":99.0".</tspan>
<tspan x="10" y="538">[6036:0404/005423:WARNING:audio_manager.cc(314)] Multiple instances of AudioManager detected</tspan>
<tspan x="10" y="554">[6036:0404/005423:WARNING:audio_manager.cc(275)] Multiple instances of AudioManager detected</tspan>
<tspan x="10" y="570">&gt; merging file:///home/travis/build/npmdoc/node-npmdoc-rpi-gpio/tmp/build/test-report.json to te\</tspan>
<tspan x="10" y="586">st-report</tspan>
<tspan x="10" y="602">server listening on http-port 43096</tspan>
<tspan x="10" y="618">events.js:160</tspan>
<tspan x="10" y="634">      throw er; // Unhandled 'error' event</tspan>
<tspan x="10" y="650">      ^</tspan>
<tspan x="10" y="666"></tspan>
<tspan x="10" y="682">Error: listen EADDRINUSE :::43096</tspan>
<tspan x="10" y="698">    at Object.exports._errnoException (util.js:1018:11)</tspan>
<tspan x="10" y="714">    at exports._exceptionWithHostPort (util.js:1041:20)</tspan>
<tspan x="10" y="730">    at Server._listen2 (net.js:1262:14)</tspan>
<tspan x="10" y="746">    at listen (net.js:1298:10)</tspan>
<tspan x="10" y="762">    at Server.listen (net.js:1394:5)</tspan>
<tspan x="10" y="778">    at Object.local.testRunServer (/home/travis/build/npmdoc/node-npmdoc-rpi-gpio/tmp/assets.app\</tspan>
<tspan x="10" y="794">.js:14900:47)</tspan>
<tspan x="10" y="810">    at /home/travis/build/npmdoc/node-npmdoc-rpi-gpio/tmp/assets.app.js:19738:5507</tspan>
<tspan x="10" y="826">    at Object.&lt;anonymous&gt; (/home/travis/build/npmdoc/node-npmdoc-rpi-gpio/tmp/assets.app.js:1973\</tspan>
<tspan x="10" y="842">8:5566)</tspan>
<tspan x="10" y="858">    at Module._compile (module.js:570:32)</tspan>
<tspan x="10" y="874">    at Object.Module._extensions..js (module.js:579:10)</tspan>
<tspan x="10" y="890">[6066:0404/005424:ERROR:sandbox_linux.cc(343)] InitializeSandbox() called with multiple threads \</tspan>
<tspan x="10" y="906">in process gpu-process. </tspan>
<tspan x="10" y="922">Xlib:  extension "RANDR" missing on display ":99.0".</tspan>
<tspan x="10" y="938">[6039:0404/005424:WARNING:audio_manager.cc(314)] Multiple instances of AudioManager detected</tspan>
<tspan x="10" y="954">[6039:0404/005424:WARNING:audio_manager.cc(275)] Multiple instances of AudioManager detected</tspan>
<tspan x="10" y="970">[6036:0404/005424:ERROR:browser_gpu_channel_host_factory.cc(131)] Failed to create channel.</tspan>
<tspan x="10" y="986">[6095:0404/005424:ERROR:sandbox_linux.cc(343)] InitializeSandbox() called with multiple threads \</tspan>
<tspan x="10" y="1002">in process gpu-process. </tspan>
<tspan x="10" y="1018">[6039:0404/005424:ERROR:browser_gpu_channel_host_factory.cc(131)] Failed to create channel.</tspan>
<tspan x="10" y="1034"></tspan>
<tspan x="10" y="1050">browserTest - opened url /home/travis/build/npmdoc/node-npmdoc-rpi-gpio/tmp/build/apidoc.html</tspan>
<tspan x="10" y="1066"></tspan>
<tspan x="10" y="1082"></tspan>
<tspan x="10" y="1098">browserTest - opened url http://127.0.0.1:34678?modeTest=1</tspan>
<tspan x="10" y="1114"></tspan>
<tspan x="10" y="1130">[6039:0404/005426:INFO:CONSOLE(245)] "----------|-----------|-----------|-----------|-----------\</tspan>
<tspan x="10" y="1146">|</tspan>
<tspan x="10" y="1162">File      |   % Stmts |% Branches |   % Funcs |   % Lines |</tspan>
<tspan x="10" y="1178">----------|-----------|-----------|-----------|-----------|</tspan>
<tspan x="10" y="1194">----------|-----------|-----------|-----------|-----------|</tspan>
<tspan x="10" y="1210">All files |       100 |       100 |       100 |       100 |</tspan>
<tspan x="10" y="1226">----------|-----------|-----------|-----------|-----------|</tspan>
<tspan x="10" y="1242">", source: file:///home/travis/build/npmdoc/node-npmdoc-rpi-gpio/tmp/electron.15b36749b480.827e3\</tspan>
<tspan x="10" y="1258">3ddf9a43.html (245)</tspan>
<tspan x="10" y="1274">[6039:0404/005426:INFO:CONSOLE(245)] "created coverage file:///tmp/build/coverage.html/index.htm\</tspan>
<tspan x="10" y="1290">l", source: file:///home/travis/build/npmdoc/node-npmdoc-rpi-gpio/tmp/electron.15b36749b480.827e\</tspan>
<tspan x="10" y="1306">33ddf9a43.html (245)</tspan>
<tspan x="10" y="1322"></tspan>
<tspan x="10" y="1338">browserTest - created screenCapture file:///home/travis/build/npmdoc/node-npmdoc-rpi-gpio/tmp/bu\</tspan>
<tspan x="10" y="1354">ild/screenCapture.npmTest.browser._2Fhome_2Ftravis_2Fbuild_2Fnpmdoc_2Fnode-npmdoc-rpi-gpio_2Ftmp\</tspan>
<tspan x="10" y="1370">_2Fbuild_2Fapidoc.html.png</tspan>
<tspan x="10" y="1386"></tspan>
<tspan x="10" y="1402">browserTest - created screenCapture file:///home/travis/build/npmdoc/node-npmdoc-rpi-gpio/tmp/bu\</tspan>
<tspan x="10" y="1418">ild/screenCapture.npmTest.browser._2Fhome_2Ftravis_2Fbuild_2Fnpmdoc_2Fnode-npmdoc-rpi-gpio_2Ftmp\</tspan>
<tspan x="10" y="1434">_2Fbuild_2Fapidoc.html.html</tspan>
<tspan x="10" y="1450"></tspan>
<tspan x="10" y="1466">browserTest - exit-code 0 - /home/travis/build/npmdoc/node-npmdoc-rpi-gpio/tmp/build/apidoc.html</tspan>
<tspan x="10" y="1482"></tspan>
<tspan x="10" y="1498"></tspan>
<tspan x="10" y="1514">browserTest - created screenCapture file:///home/travis/build/npmdoc/node-npmdoc-rpi-gpio/tmp/bu\</tspan>
<tspan x="10" y="1530">ild/screenCapture.npmTest.browser..png</tspan>
<tspan x="10" y="1546"></tspan>
<tspan x="10" y="1562">browserTest - created screenCapture file:///home/travis/build/npmdoc/node-npmdoc-rpi-gpio/tmp/bu\</tspan>
<tspan x="10" y="1578">ild/screenCapture.npmTest.browser..html</tspan>
<tspan x="10" y="1594"></tspan>
<tspan x="10" y="1610">browserTest - exit-code 0 - http://127.0.0.1:34678?modeTest=1</tspan>
<tspan x="10" y="1626"></tspan>
<tspan x="10" y="1642"></tspan>
<tspan x="10" y="1658">browserTest - merged coverage from /home/travis/build/npmdoc/node-npmdoc-rpi-gpio/tmp/coverage.n\</tspan>
<tspan x="10" y="1674">pmTest.browser.%2F.json</tspan>
<tspan x="10" y="1690"></tspan>
<tspan x="10" y="1706"></tspan>
<tspan x="10" y="1722">browserTest - merging test-report from /home/travis/build/npmdoc/node-npmdoc-rpi-gpio/tmp/test-r\</tspan>
<tspan x="10" y="1738">eport.npmTest.browser.%2F.json</tspan>
<tspan x="10" y="1754"></tspan>
<tspan x="10" y="1770">[node test-case 4 of 6 passed] - testCase_webpage_default</tspan>
<tspan x="10" y="1786"></tspan>
<tspan x="10" y="1802">testCase testCase_buildApidoc_default failed</tspan>
<tspan x="10" y="1818">onTimeout - timeout-error - 30000 ms - testCase_buildApidoc_default</tspan>
<tspan x="10" y="1834">Error: onTimeout - timeout-error - 30000 ms - testCase_buildApidoc_default</tspan>
<tspan x="10" y="1850">    at Timeout._onTimeout (/home/travis/build/npmdoc/node-npmdoc-rpi-gpio/node_modules/utility2/\</tspan>
<tspan x="10" y="1866">lib.utility2.js:4136:25)</tspan>
<tspan x="10" y="1882">    at ontimeout (timers.js:380:14)</tspan>
<tspan x="10" y="1898">    at tryOnTimeout (timers.js:244:5)</tspan>
<tspan x="10" y="1914">    at Timer.listOnTimeout (timers.js:214:5)</tspan>
<tspan x="10" y="1930">Error</tspan>
<tspan x="10" y="1946">    at Object.local.onTimeout (/home/travis/build/npmdoc/node-npmdoc-rpi-gpio/node_modules/utili\</tspan>
<tspan x="10" y="1962">ty2/lib.utility2.js:4133:29)</tspan>
<tspan x="10" y="1978">    at /home/travis/build/npmdoc/node-npmdoc-rpi-gpio/node_modules/utility2/lib.utility2.js:5420\</tspan>
<tspan x="10" y="1994">:38</tspan>
<tspan x="10" y="2010">    at onEach2 (/home/travis/build/npmdoc/node-npmdoc-rpi-gpio/node_modules/utility2/lib.utility\</tspan>
<tspan x="10" y="2026">2.js:4048:21)</tspan>
<tspan x="10" y="2042">    at Object.local.onParallelList (/home/travis/build/npmdoc/node-npmdoc-rpi-gpio/node_modules/\</tspan>
<tspan x="10" y="2058">utility2/lib.utility2.js:4074:13)</tspan>
<tspan x="10" y="2074">    at Object.local.testRunDefault (/home/travis/build/npmdoc/node-npmdoc-rpi-gpio/node_modules/\</tspan>
<tspan x="10" y="2090">utility2/lib.utility2.js:5375:19)</tspan>
<tspan x="10" y="2106">    at /home/travis/build/npmdoc/node-npmdoc-rpi-gpio/node_modules/utility2/lib.utility2.js:5316\</tspan>
<tspan x="10" y="2122">:35</tspan>
<tspan x="10" y="2138">    at /home/travis/build/npmdoc/node-npmdoc-rpi-gpio/node_modules/utility2/lib.utility2.js:3948\</tspan>
<tspan x="10" y="2154">:17</tspan>
<tspan x="10" y="2170">    at /home/travis/build/npmdoc/node-npmdoc-rpi-gpio/node_modules/utility2/lib.utility2.js:4801\</tspan>
<tspan x="10" y="2186">:29</tspan>
<tspan x="10" y="2202">    at Array.forEach (native)</tspan>
<tspan x="10" y="2218">[node test-case 5 of 6 failed] - testCase_buildApidoc_default</tspan>
<tspan x="10" y="2234"></tspan>
<tspan x="10" y="2250">testCase testCase_buildApp_default failed</tspan>
<tspan x="10" y="2266">onTimeout - timeout-error - 30000 ms - testCase_buildApp_default</tspan>
<tspan x="10" y="2282">Error: onTimeout - timeout-error - 30000 ms - testCase_buildApp_default</tspan>
<tspan x="10" y="2298">    at Timeout._onTimeout (/home/travis/build/npmdoc/node-npmdoc-rpi-gpio/node_modules/utility2/\</tspan>
<tspan x="10" y="2314">lib.utility2.js:4136:25)</tspan>
<tspan x="10" y="2330">    at ontimeout (timers.js:380:14)</tspan>
<tspan x="10" y="2346">    at tryOnTimeout (timers.js:244:5)</tspan>
<tspan x="10" y="2362">    at Timer.listOnTimeout (timers.js:214:5)</tspan>
<tspan x="10" y="2378">Error</tspan>
<tspan x="10" y="2394">    at Object.local.onTimeout (/home/travis/build/npmdoc/node-npmdoc-rpi-gpio/node_modules/utili\</tspan>
<tspan x="10" y="2410">ty2/lib.utility2.js:4133:29)</tspan>
<tspan x="10" y="2426">    at /home/travis/build/npmdoc/node-npmdoc-rpi-gpio/node_modules/utility2/lib.utility2.js:5420\</tspan>
<tspan x="10" y="2442">:38</tspan>
<tspan x="10" y="2458">    at onEach2 (/home/travis/build/npmdoc/node-npmdoc-rpi-gpio/node_modules/utility2/lib.utility\</tspan>
<tspan x="10" y="2474">2.js:4048:21)</tspan>
<tspan x="10" y="2490">    at Object.local.onParallelList (/home/travis/build/npmdoc/node-npmdoc-rpi-gpio/node_modules/\</tspan>
<tspan x="10" y="2506">utility2/lib.utility2.js:4074:13)</tspan>
<tspan x="10" y="2522">    at Object.local.testRunDefault (/home/travis/build/npmdoc/node-npmdoc-rpi-gpio/node_modules/\</tspan>
<tspan x="10" y="2538">utility2/lib.utility2.js:5375:19)</tspan>
<tspan x="10" y="2554">    at /home/travis/build/npmdoc/node-npmdoc-rpi-gpio/node_modules/utility2/lib.utility2.js:5316\</tspan>
<tspan x="10" y="2570">:35</tspan>
<tspan x="10" y="2586">    at /home/travis/build/npmdoc/node-npmdoc-rpi-gpio/node_modules/utility2/lib.utility2.js:3948\</tspan>
<tspan x="10" y="2602">:17</tspan>
<tspan x="10" y="2618">    at /home/travis/build/npmdoc/node-npmdoc-rpi-gpio/node_modules/utility2/lib.utility2.js:4801\</tspan>
<tspan x="10" y="2634">:29</tspan>
<tspan x="10" y="2650">    at Array.forEach (native)</tspan>
<tspan x="10" y="2666">[node test-case 6 of 6 failed] - testCase_buildApp_default</tspan>
<tspan x="10" y="2682"></tspan>
<tspan x="10" y="2698">testCase testCase_buildApidoc_default failed</tspan>
<tspan x="10" y="2714">callback in testCase testCase_buildApidoc_default called multiple times</tspan>
<tspan x="10" y="2730">Error: callback in testCase testCase_buildApidoc_default called multiple times</tspan>
<tspan x="10" y="2746">    at Timeout.onError [as _onTimeout] (/home/travis/build/npmdoc/node-npmdoc-rpi-gpio/node_modu\</tspan>
<tspan x="10" y="2762">les/utility2/lib.utility2.js:5384:42)</tspan>
<tspan x="10" y="2778">    at ontimeout (timers.js:380:14)</tspan>
<tspan x="10" y="2794">    at tryOnTimeout (timers.js:244:5)</tspan>
<tspan x="10" y="2810">    at Timer.listOnTimeout (timers.js:214:5)</tspan>
<tspan x="10" y="2826">-----------------------------|-----------|-----------|-----------|-----------|</tspan>
<tspan x="10" y="2842">File                         |   % Stmts |% Branches |   % Funcs |   % Lines |</tspan>
<tspan x="10" y="2858">-----------------------------|-----------|-----------|-----------|-----------|</tspan>
<tspan x="10" y="2874">   node-npmdoc-rpi-gpio/     |       100 |       100 |       100 |       100 |</tspan>
<tspan x="10" y="2890">      example.js             |       100 |       100 |       100 |       100 |</tspan>
<tspan x="10" y="2906">      lib.npmdoc_rpi_gpio.js |       100 |       100 |       100 |       100 |</tspan>
<tspan x="10" y="2922">      test.js                |       100 |       100 |       100 |       100 |</tspan>
<tspan x="10" y="2938">-----------------------------|-----------|-----------|-----------|-----------|</tspan>
<tspan x="10" y="2954">All files                    |       100 |       100 |       100 |       100 |</tspan>
<tspan x="10" y="2970">-----------------------------|-----------|-----------|-----------|-----------|</tspan>
<tspan x="10" y="2986"></tspan>
<tspan x="10" y="3002">created coverage file:///home/travis/build/npmdoc/node-npmdoc-rpi-gpio/tmp/build/coverage.html/i\</tspan>
<tspan x="10" y="3018">ndex.html</tspan>
<tspan x="10" y="3034">merging file:///home/travis/build/npmdoc/node-npmdoc-rpi-gpio/tmp/build/test-report.json to test\</tspan>
<tspan x="10" y="3050">-report</tspan>
<tspan x="10" y="3066">&gt; server listening on http-port 34678</tspan>
<tspan x="10" y="3082">created apidoc file:///home/travis/build/npmdoc/node-npmdoc-rpi-gpio/tmp/build/apidoc.html</tspan>
<tspan x="10" y="3098"></tspan>
<tspan x="10" y="3114"></tspan>
<tspan x="10" y="3130">browserTest - created electron entry-page /home/travis/build/npmdoc/node-npmdoc-rpi-gpio/tmp/ele\</tspan>
<tspan x="10" y="3146">ctron.15b36751b070.0a8f78cada56.html</tspan>
<tspan x="10" y="3162"></tspan>
<tspan x="10" y="3178">[node test-case 1 of 6 passed] - testCase_buildLib_default</tspan>
<tspan x="10" y="3194">[node test-case 2 of 6 passed] - testCase_buildReadme_default</tspan>
<tspan x="10" y="3210">[node test-case 3 of 6 passed] - testCase_buildTest_default</tspan>
<tspan x="10" y="3226"></tspan>
<tspan x="10" y="3242">browserTest - created electron entry-page /home/travis/build/npmdoc/node-npmdoc-rpi-gpio/tmp/ele\</tspan>
<tspan x="10" y="3258">ctron.15b36751b3a0.5e5c9d9ae1d1f.html</tspan>
<tspan x="10" y="3274"></tspan>
<tspan x="10" y="3290">Xlib:  extension "RANDR" missing on display ":99.0".</tspan>
<tspan x="10" y="3306">Xlib:  extension "RANDR" missing on display ":99.0".</tspan>
<tspan x="10" y="3322">merging file:///home/travis/build/npmdoc/node-npmdoc-rpi-gpio/tmp/build/test-report.json to test\</tspan>
<tspan x="10" y="3338">-report</tspan>
<tspan x="10" y="3354">Xlib:  extension "RANDR" missing on display ":99.0".</tspan>
<tspan x="10" y="3370">[6194:0404/005456:WARNING:audio_manager.cc(314)] Multiple instances of AudioManager detected</tspan>
<tspan x="10" y="3386">[6194:0404/005456:WARNING:audio_manager.cc(275)] Multiple instances of AudioManager detected</tspan>
<tspan x="10" y="3402">[6214:0404/005456:ERROR:sandbox_linux.cc(343)] InitializeSandbox() called with multiple threads \</tspan>
<tspan x="10" y="3418">in process gpu-process. </tspan>
<tspan x="10" y="3434">merging file:///home/travis/build/npmdoc/node-npmdoc-rpi-gpio/tmp/build/test-report.json to test\</tspan>
<tspan x="10" y="3450">-report</tspan>
<tspan x="10" y="3466">[6194:0404/005456:ERROR:browser_gpu_channel_host_factory.cc(131)] Failed to create channel.</tspan>
<tspan x="10" y="3482">Xlib:  extension "RANDR" missing on display ":99.0".</tspan>
<tspan x="10" y="3498">[6190:0404/005457:WARNING:audio_manager.cc(314)] Multiple instances of AudioManager detected</tspan>
<tspan x="10" y="3514">[6190:0404/005457:WARNING:audio_manager.cc(275)] Multiple instances of AudioManager detected</tspan>
<tspan x="10" y="3530">[6254:0404/005457:ERROR:sandbox_linux.cc(343)] InitializeSandbox() called with multiple threads \</tspan>
<tspan x="10" y="3546">in process gpu-process. </tspan>
<tspan x="10" y="3562">[6190:0404/005457:ERROR:browser_gpu_channel_host_factory.cc(131)] Failed to create channel.</tspan>
<tspan x="10" y="3578"></tspan>
<tspan x="10" y="3594">browserTest - opened url http://127.0.0.1:34678?modeTest=1</tspan>
<tspan x="10" y="3610"></tspan>
<tspan x="10" y="3626">&gt; </tspan>
<tspan x="10" y="3642">browserTest - opened url /home/travis/build/npmdoc/node-npmdoc-rpi-gpio/tmp/build/apidoc.html</tspan>
<tspan x="10" y="3658"></tspan>
<tspan x="10" y="3674">server listening on http-port 43357</tspan>
<tspan x="10" y="3690">[node test-case 4 of 6 passed] - testCase_buildApp_default</tspan>
<tspan x="10" y="3706"></tspan>
<tspan x="10" y="3722">browserTest - created screenCapture file:///home/travis/build/npmdoc/node-npmdoc-rpi-gpio/tmp/bu\</tspan>
<tspan x="10" y="3738">ild/screenCapture.npmTest.browser..png</tspan>
<tspan x="10" y="3754"></tspan>
<tspan x="10" y="3770">browserTest - created screenCapture file:///home/travis/build/npmdoc/node-npmdoc-rpi-gpio/tmp/bu\</tspan>
<tspan x="10" y="3786">ild/screenCapture.npmTest.browser..html</tspan>
<tspan x="10" y="3802"></tspan>
<tspan x="10" y="3818">browserTest - exit-code 0 - http://127.0.0.1:34678?modeTest=1</tspan>
<tspan x="10" y="3834"></tspan>
<tspan x="10" y="3850"></tspan>
<tspan x="10" y="3866">browserTest - merged coverage from /home/travis/build/npmdoc/node-npmdoc-rpi-gpio/tmp/coverage.n\</tspan>
<tspan x="10" y="3882">pmTest.browser.%2F.json</tspan>
<tspan x="10" y="3898"></tspan>
<tspan x="10" y="3914"></tspan>
<tspan x="10" y="3930">browserTest - merging test-report from /home/travis/build/npmdoc/node-npmdoc-rpi-gpio/tmp/test-r\</tspan>
<tspan x="10" y="3946">eport.npmTest.browser.%2F.json</tspan>
<tspan x="10" y="3962"></tspan>
<tspan x="10" y="3978">[node test-case 5 of 6 passed] - testCase_webpage_default</tspan>
<tspan x="10" y="3994"></tspan>
<tspan x="10" y="4010">browserTest - created screenCapture file:///home/travis/build/npmdoc/node-npmdoc-rpi-gpio/tmp/bu\</tspan>
<tspan x="10" y="4026">ild/screenCapture.npmTest.browser._2Fhome_2Ftravis_2Fbuild_2Fnpmdoc_2Fnode-npmdoc-rpi-gpio_2Ftmp\</tspan>
<tspan x="10" y="4042">_2Fbuild_2Fapidoc.html.png</tspan>
<tspan x="10" y="4058"></tspan>
<tspan x="10" y="4074">browserTest - created screenCapture file:///home/travis/build/npmdoc/node-npmdoc-rpi-gpio/tmp/bu\</tspan>
<tspan x="10" y="4090">ild/screenCapture.npmTest.browser._2Fhome_2Ftravis_2Fbuild_2Fnpmdoc_2Fnode-npmdoc-rpi-gpio_2Ftmp\</tspan>
<tspan x="10" y="4106">_2Fbuild_2Fapidoc.html.html</tspan>
<tspan x="10" y="4122"></tspan>
<tspan x="10" y="4138">browserTest - exit-code 0 - /home/travis/build/npmdoc/node-npmdoc-rpi-gpio/tmp/build/apidoc.html</tspan>
<tspan x="10" y="4154"></tspan>
<tspan x="10" y="4170">[node test-case 6 of 6 passed] - testCase_buildApidoc_default</tspan>
<tspan x="10" y="4186">merging file:///home/travis/build/npmdoc/node-npmdoc-rpi-gpio/tmp/build/test-report.json to test\</tspan>
<tspan x="10" y="4202">-report</tspan>
<tspan x="10" y="4218"></tspan>
<tspan x="10" y="4234">-------------------------------------------------------</tspan>
<tspan x="10" y="4250">| test-report - buildNpmdoc - node - linux v6.10.1 - 2017-04-04T00:53:49.216Z</tspan>
<tspan x="10" y="4266">|   76893 ms            0 failed        6 passed      |</tspan>
<tspan x="10" y="4282">-------------------------------------------------------</tspan>
<tspan x="10" y="4298"></tspan>
<tspan x="10" y="4314">created test-report file:///home/travis/build/npmdoc/node-npmdoc-rpi-gpio/tmp/build/test-report.\</tspan>
<tspan x="10" y="4330">html</tspan>
<tspan x="10" y="4346"></tspan>
<tspan x="10" y="4362"></tspan>
<tspan x="10" y="4378">npmTest - 0 failed tests</tspan>
<tspan x="10" y="4394"></tspan>
<tspan x="10" y="4410"></tspan>
<tspan x="10" y="4426">[MODE_BUILD=npmTest] - 2017-04-04T00:55:09Z - EXIT_CODE - 2</tspan>
<tspan x="10" y="4442"></tspan>
<tspan x="10" y="4458">npm ERR! Test failed.  See above for more details.</tspan>
</text>
</svg>
